Coordinates
version=1
nRows=25
nColumns=23
inDegrees=yes

Units are S.I. units (second, meters, Newtons, ...)
If the header above contains a line with 'inDegrees', this indicates whether rotational values are in degrees (yes) or radians (no).

endheader
time	pelvis_tilt	pelvis_list	pelvis_rotation	pelvis_tx	pelvis_ty	pelvis_tz	hip_flexion_r	hip_adduction_r	hip_rotation_r	knee_angle_r	knee_angle_r_beta	ankle_angle_r	subtalar_angle_r	mtp_angle_r	hip_flexion_l	hip_adduction_l	hip_rotation_l	knee_angle_l	knee_angle_l_beta	ankle_angle_l	subtalar_angle_l	mtp_angle_l
      0.00000000	      1.35339322	      6.24568853	      9.45714836	      2.11447806	      0.97961622	      1.04125113	     24.43483140	     -7.71082090	     -5.08462845	    120.12111409	      2.09650894	     -4.61771922	    -10.19935928	      0.00000000	     11.03622013	      5.36882160	     -4.27465756	     50.10389263	      0.87447789	     29.05131959	     14.68562713	      0.00000000
      0.00666667	      1.48031317	      5.77401268	      8.79254030	      2.11468257	      0.98289103	      1.04193475	     26.42231170	     -7.36571943	     -4.55381249	    119.13788836	      2.07934842	     -4.14601084	     -9.91735998	      0.00000000	      8.74309580	      4.37496909	     -4.96978734	     48.80923465	      0.85188185	     28.96107679	     15.85496885	      0.00000000
      0.01333333	      1.47422550	      5.31956745	      8.12503321	      2.11490668	      0.98599850	      1.04244958	     28.45200241	     -6.98938510	     -4.01379055	    118.07457306	      2.06079006	     -3.63131661	     -9.68505576	      0.00000000	      6.51545329	      3.62277852	     -5.45085603	     47.29618979	      0.82547424	     28.77249043	     16.35417662	      0.00000000
      0.02000000	      1.40459760	      4.78133055	      7.50693728	      2.11529987	      0.98920166	      1.04285626	     30.40278099	     -6.52737842	     -3.65340867	    116.80769860	      2.03867893	     -3.07899538	     -9.54433808	      0.00000000	      4.33704836	      2.92139512	     -5.77052418	     45.66108643	      0.79693630	     28.38996856	     16.76826127	      0.00000000
      0.02666667	      1.79708113	      4.28413223	      6.79120221	      2.11617053	      0.99317055	      1.04313145	     31.61704222	     -5.98296829	     -3.31996663	    115.29388976	      2.01225798	     -2.53501090	     -9.53004561	      0.00000000	      1.51408724	      2.22116672	     -6.33809740	     43.74137225	      0.76343097	     27.74501944	     17.41084518	      0.00000000
      0.03333333	      1.74438988	      3.69429799	      6.07597271	      2.11718489	      0.99693218	      1.04342783	     33.24002215	     -5.31823642	     -3.06693325	    113.61497507	      1.98295539	     -2.02078069	     -9.76008346	      0.00000000	     -0.81157150	      1.62602822	     -6.79828066	     41.72292792	      0.72820247	     26.48638042	     17.54906560	      0.00000000
      0.04000000	      2.11485196	      3.16825959	      5.37075679	      2.11862197	      1.00166978	      1.04349666	     34.14166876	     -4.71788005	     -2.93726374	    111.64292233	      1.94853658	     -1.60963060	    -10.29120040	      0.00000000	     -3.74229180	      1.25831755	     -6.98637461	     39.31798674	      0.68622832	     24.73006482	     17.25095364	      0.00000000
      0.04666667	      2.21766500	      2.65316411	      4.56829188	      2.12029611	      1.00640480	      1.04364039	     35.23417243	     -4.05285356	     -2.76253096	    109.49660129	      1.91107621	     -1.27222776	    -11.03973332	      0.00000000	     -6.41462234	      1.06951613	     -7.18090697	     36.74033372	      0.64123979	     22.27215497	     16.47420499	      0.00000000
      0.05333333	      2.30177929	      2.11411322	      3.73469805	      2.12227573	      1.01140297	      1.04375355	     36.17856755	     -3.33991660	     -2.65978317	    107.13009646	      1.86977291	     -1.03336919	    -12.07492066	      0.00000000	     -9.08766200	      0.96616610	     -7.34967618	     34.01305648	      0.59363982	     19.28695911	     15.46278602	      0.00000000
      0.06000000	      2.04252494	      1.51837329	      2.78458689	      2.12444079	      1.01602953	      1.04405502	     37.41280038	     -2.50511089	     -2.57051398	    104.63249049	      1.82618146	     -0.83315050	    -13.19143156	      0.00000000	    -11.28971187	      0.77695805	     -8.05850375	     31.42468830	      0.54846428	     15.81531395	     14.86390513	      0.00000000
      0.06666667	      2.27825669	      0.97985022	      2.05638243	      2.12689736	      1.02167779	      1.04405486	     37.79858483	     -1.81917026	     -2.69361930	    101.80594253	      1.77684890	     -0.76548617	    -14.63557567	      0.00000000	    -14.14168465	      0.92641841	     -7.69793864	     28.38649868	      0.49543787	     11.84881497	     12.78289312	      0.00000000
      0.07333333	      2.01969669	      0.39867111	      1.08789486	      2.12938030	      1.02644553	      1.04442399	     38.70321097	     -0.92589297	     -2.67193052	     98.92532855	      1.72657270	     -0.74550258	    -16.03546455	      0.00000000	    -16.21246956	      0.85726083	     -8.55097139	     25.85571267	      0.45126732	      7.78987481	     12.00441071	      0.00000000
      0.08000000	      1.85956908	     -0.16883039	      0.38225635	      2.13197687	      1.03143450	      1.04442017	     39.27746412	     -0.26997158	     -2.95403422	     95.83668090	      1.67266563	     -0.71665320	    -17.38528125	      0.00000000	    -18.30528713	      0.92804914	     -8.60802345	     23.30898605	      0.40681855	      3.26519238	     10.08775746	      0.00000000
      0.08666667	      1.48025197	     -0.66100402	     -0.37225253	      2.13454240	      1.03591533	      1.04451435	     39.99435098	      0.36105053	     -3.17315586	     92.65734570	      1.61717576	     -0.69066852	    -18.57195021	      0.00000000	    -19.90107091	      0.96726965	     -9.21608902	     21.24772846	      0.37084282	     -1.14607476	      8.80888473	      0.00000000
      0.09333333	      1.03385783	     -1.16799356	     -1.14672011	      2.13712189	      1.04009278	      1.04467771	     40.65287351	      1.05003819	     -3.40761606	     89.34274571	      1.55932508	     -0.64162450	    -19.62833385	      0.00000000	    -21.13588177	      0.86282266	    -10.43996420	     19.74642035	      0.34464005	     -5.25083652	      8.28265715	      0.00000000
      0.10000000	      0.60183990	     -1.54164775	     -1.72000979	      2.13959807	      1.04418219	      1.04459266	     41.13979039	      1.46352001	     -3.76045458	     85.89551914	      1.49915962	     -0.58413616	    -20.43707590	      0.00000000	    -22.18310475	      0.91893516	    -11.00865043	     18.51532297	      0.32315335	     -9.36898088	      7.03737273	      0.00000000
      0.10666667	      0.01025142	     -1.74944934	     -2.28914785	      2.14197191	      1.04779484	      1.04450549	     41.70967307	      1.70890176	     -4.07161399	     82.39163962	      1.43800539	     -0.36498828	    -20.70557914	      0.00000000	    -22.80470313	      1.11272810	    -11.48947746	     17.73744965	      0.30957690	    -13.15415697	      5.59540485	      0.00000000
      0.11333333	     -0.56907724	     -1.89070626	     -2.80912826	      2.14421349	      1.05111865	      1.04444845	     42.14577736	      1.89152113	     -4.39475968	     78.78344094	      1.37503044	     -0.10023198	    -20.64623681	      0.00000000	    -23.16284401	      1.28440381	    -12.00018288	     17.49192558	      0.30529169	    -16.42612444	      4.47322031	      0.00000000
      0.12000000	     -1.32712716	     -1.89391968	     -3.25540222	      2.14625626	      1.05385351	      1.04442656	     42.68668963	      1.92954531	     -4.72967305	     75.11831280	      1.31106189	      0.23943930	    -20.12480989	      0.00000000	    -22.97491847	      1.43873191	    -12.58104242	     17.95480625	      0.31337049	    -19.00849335	      4.06672309	      0.00000000
      0.12666667	     -1.73474485	     -1.93253203	     -3.67693197	      2.14820133	      1.05669659	      1.04446434	     42.70156153	      1.99198788	     -5.12064398	     71.33439204	      1.24502001	      0.65677312	    -19.14840853	      0.00000000	    -23.14268965	      1.71494296	    -12.38415758	     18.40383704	      0.32120755	    -21.42617464	      2.38980384	      0.00000000
      0.13333333	     -2.32150659	     -1.90675423	     -4.01945826	      2.14992821	      1.05888495	      1.04462207	     42.81587170	      1.99712777	     -5.56292095	     67.49712110	      1.17804700	      1.09743711	    -17.72287378	      0.00000000	    -22.78294723	      1.89622918	    -12.26138807	     19.56584392	      0.34148840	    -23.02647113	      1.59578878	      0.00000000
      0.14000000	     -2.84738741	     -1.83012624	     -4.32154730	      2.15142231	      1.06067031	      1.04487828	     42.78115474	      1.96931043	     -6.02131403	     63.63043881	      1.11056066	      1.48055316	    -15.96918875	      0.00000000	    -22.30630513	      2.11930502	    -11.88777775	     21.09357526	      0.36815234	    -24.14203638	      0.94423006	      0.00000000
      0.14666667	     -3.28538387	     -1.70185235	     -4.56625732	      2.15278264	      1.06207343	      1.04517891	     42.57465971	      1.82824926	     -6.62022499	     59.80538398	      1.04380086	      2.03797871	    -13.41384707	      0.00000000	    -21.78457906	      2.42113456	    -11.18669706	     22.89742893	      0.39963553	    -24.69173514	      0.51753129	      0.00000000
      0.15333333	     -3.65216460	     -1.61284732	     -4.77466159	      2.15392649	      1.06308238	      1.04557753	     42.20854386	      1.75331448	     -7.27299267	     55.99049116	      0.97721842	      2.49120157	    -10.67093103	      0.00000000	    -21.16940231	      2.67143558	    -10.41463526	     25.06680832	      0.43749834	    -24.71794855	      0.32760254	      0.00000000
      0.16000000	     -3.95452361	     -1.54173608	     -4.95257410	      2.15482778	      1.06371270	      1.04609893	     41.69985798	      1.78719037	     -7.83590389	     52.19963198	      0.91105545	      2.67396374	     -8.11865895	      0.00000000	    -20.47604082	      2.92183351	     -9.52354609	     27.52892305	      0.48047035	    -24.33407485	      0.09675996	      0.00000000
